<svg xmlns="http://www.w3.org/2000/svg" xmlns:xlink="http://www.w3.org/1999/xlink" version="1.1" width="750" height="750" viewBox="0 0 750 750">
<defs>
<clipPath id="clip_0">
<path transform="matrix(1,0,0,-1,0,750)" d="M0 750H750V0H0Z"/>
</clipPath>
</defs>
<g id="layer_1" data-name="Layer 1">
<g clip-path="url(#clip_0)">
<path transform="matrix(1,0,0,-1,177.9771,397.8564)" d="M0 0H.217L34.49 17.57C24.295 24.295-29.393 50.109-50.217 28.2-51.627 26.79-53.038 25.271-54.339 23.753-32.43 20.499-13.232 12.039 0 0" fill="#ec5f50"/>
<path transform="matrix(1,0,0,-1,161.8164,386.4678)" d="M0 0 29.827 16.377C2.928 27.332-12.256 24.078-29.501 13.449-30.586 12.798-31.562 12.147-32.539 11.388-20.499 9.11-9.545 5.206 0 0" fill="#b33433"/>
<path transform="matrix(1,0,0,-1,97.0649,372.9106)" d="M0 0C21.692 1.193 41.866-2.82 58.46-10.413H58.569C58.569-10.413 68.547-2.603 83.189 7.592 97.832 17.679 107.376 24.946 107.376 24.946 99.784 30.152 81.237 34.924 69.632 36.551 35.142 41.432 6.942 24.512-4.338-.325-2.82-.217-1.41-.108 0 0" fill="#6fbe94"/>
<path transform="matrix(1,0,0,-1,97.0649,372.9106)" d="M0 0C16.595 .868 32.322-1.193 46.205-5.64L59.762 37.202C26.573 38.287-2.169 22.018-11.931-.542-12.039-.759-12.147-.976-12.147-1.193-8.243-.651-4.121-.217 0 0" fill="#4c9f70"/>
<path transform="matrix(1,0,0,-1,97.0649,372.9106)" d="M0 0C13.124 .651 25.814-.759 37.419-3.362L56.508 66.704C41.649 67.896 25.706 66.27 10.087 61.606-32.972 48.699-58.352 16.486-51.193-13.34-36.551-5.857-18.98-1.084 0 0" fill="#f3de3e"/>
<path transform="matrix(1,0,0,-1,97.0649,372.9106)" d="M0 0C5.749 .325 11.389 .217 16.92-.108L-6.507 55.315C-39.263 39.914-57.375 12.473-51.193-13.34-36.551-5.857-18.98-1.084 0 0" fill="#cdaf33"/>
<path transform="matrix(1,0,0,-1,97.0649,372.9106)" d="M0 0C2.169 .108 4.447 .108 6.616 .217 4.772 4.664-.868 17.896-9.761 33.406-20.824 52.495-27.766 64.643-27.766 64.643-44.143 58.569-64.1 48.048-75.706 36.551-101.194 11.171-103.363-19.74-84.924-42.734-70.391-19.306-38.178-2.061 0 0" fill="#1dabd6"/>
<path transform="matrix(1,0,0,-1,335.8955,343.1924)" d="M0 0-34.49-90.239C-35.575-92.951-37.419-94.252-40.347-94.252H-55.207C-58.026-94.252-59.979-92.951-61.063-90.239L-95.554 0H-77.983L-54.772-66.053C-53.471-69.632-51.627-75.163-49.132-82.539H-46.638L-40.781-66.053-17.462 0Z" fill="#324252"/>
<path transform="matrix(1,0,0,-1,0,750)" d="M371.688 312.447H355.418V406.807H371.688Z" fill="#324252"/>
<path transform="matrix(1,0,0,-1,445.6582,399.375)" d="M0 0-27.115 6.183C-34.816 8.026-40.348 10.846-43.602 14.859-46.855 18.872-48.482 24.729-48.482 32.43-48.482 42.842-45.662 49.133-40.131 52.712-34.6 56.291-25.055 56.074-11.497 56.074H28.091V43.927H-9.111C-18.655 44.035-24.946 43.493-27.875 42.191-30.803 40.89-32.321 37.853-32.321 32.321-32.321 27.766-31.346 24.729-29.284 22.994-27.332 21.367-23.753 19.849-18.547 18.764L9.002 12.581C16.703 10.629 22.343 7.81 25.705 4.013 29.176 .217 30.803-5.531 30.803-13.341 30.803-24.295 28.091-30.044 22.018-33.623 15.943-37.202 7.809-38.396-9.437-38.396H-45.337V-25.813H-12.69C-1.735-25.813 5.64-24.946 9.436-23.319 13.231-21.692 15.076-18.872 15.076-13.449 15.076-9.219 13.991-6.291 11.714-4.664 9.219-2.712 5.423-1.302 0 0" fill="#324252"/>
<path transform="matrix(1,0,0,-1,517.459,343.1924)" d="M0 0V-13.232C12.581-2.82 24.838 2.386 36.551 2.386 49.675 2.386 57.701-3.146 60.413-14.208 73.211-3.146 85.792 2.386 98.374 2.386 106.509 2.386 112.69 .217 117.029-4.23 121.367-8.568 123.537-15.076 123.537-23.536V-94.252H107.268V-28.308C107.159-22.451 105.966-18.221 103.688-15.618 101.411-13.015 97.723-11.605 92.517-11.605 87.962-11.605 83.623-12.69 79.394-14.75 75.163-16.812 69.198-20.716 61.497-26.356V-94.36H45.662V-28.308C45.662-22.343 44.469-18.113 42.083-15.51 39.696-12.907 36.009-11.605 30.911-11.605 26.356-11.605 22.018-12.69 17.896-14.75 13.666-16.812 7.701-20.607 0-26.139V-94.252H-16.486V0Z" fill="#324252"/>
<path transform="matrix(1,0,0,-1,683.1865,385.6006)" d="M0 0H39.914C46.747 0 50.218 4.664 50.218 13.992 50.109 20.065 48.266 24.404 44.795 27.007 41.324 29.61 35.358 30.912 27.007 30.912 17.028 30.912 10.195 28.742 6.291 24.404 2.387 19.957 .218 11.822 0 0M44.144-12.798H.218C1.085-23.645 3.797-30.911 8.135-34.707 12.474-38.504 19.849-39.263 30.044-39.263H62.799V-51.844H27.983C11.714-51.844 .109-50.435-6.724-42.842-13.666-35.25-17.028-22.451-17.028-4.447-17.028 13.774-13.666 26.464-6.941 33.84-.217 41.107 10.847 44.794 26.356 44.794 40.456 44.794 50.651 42.191 57.159 37.202 63.559 32.104 66.813 24.404 66.813 14.1 66.921-3.904 59.437-12.798 44.144-12.798" fill="#324252"/>
<path transform="matrix(1,0,0,-1,124.7227,405.2314)" d="M0 0-21.258-14.859-13.558 7.809C-16.052 8.46-18.547 8.785-21.258 8.785-36.443 8.785-48.699-1.953-48.699-15.076-48.699-28.309-36.443-38.938-21.258-38.938-6.074-38.938 6.182-28.2 6.182-15.076 6.182-9.437 3.796-4.122 0 0" fill="#324252"/>
</g>
</g>
</svg>
