<?xml version="1.0" encoding="UTF-8" standalone="no"?>
<!-- Created with Inkscape (http://www.inkscape.org/) -->

<svg
   version="1.1"
   id="svg2"
   width="694.66669"
   height="694.66669"
   viewBox="0 0 694.66669 694.66669"
   sodipodi:docname="zeiss-seeklogo-2.eps"
   xmlns:inkscape="http://www.inkscape.org/namespaces/inkscape"
   xmlns:sodipodi="http://sodipodi.sourceforge.net/DTD/sodipodi-0.dtd"
   xmlns="http://www.w3.org/2000/svg"
   xmlns:svg="http://www.w3.org/2000/svg">
  <defs
     id="defs6" />
  <sodipodi:namedview
     id="namedview4"
     pagecolor="#ffffff"
     bordercolor="#000000"
     borderopacity="0.25"
     inkscape:showpageshadow="2"
     inkscape:pageopacity="0.0"
     inkscape:pagecheckerboard="0"
     inkscape:deskcolor="#d1d1d1" />
  <g
     id="g8"
     inkscape:groupmode="layer"
     inkscape:label="ink_ext_XXXXXX"
     transform="matrix(1.3333333,0,0,-1.3333333,0,694.66667)">
    <g
       id="g10"
       transform="scale(0.1)">
      <path
         d="M 6.00391,5209.83 H 5206.76 V 9.07422 h -53.92 L 5007.43,88.8516 4456.22,274.773 4084.25,387.664 3625.99,480.672 3160.96,547.113 2609.72,573.664 2078.36,547.113 1593.46,480.672 1135.19,387.664 763.238,274.773 211.891,88.8516 66.5742,9.07422 H 6.00391 V 5209.83"
         style="fill:#2d43a0;fill-opacity:1;fill-rule:evenodd;stroke:none"
         id="path12" />
      <path
         d="m 3904.88,2599.51 46.55,26.55 19.88,66.44 -46.51,185.96 -66.39,139.49 -119.53,159.41 -225.86,345.37 -46.49,93 h 112.97 l 112.87,-19.94 93.04,-73.06 46.47,-92.96 26.53,-66.45 h 112.9 v 345.41 h -896.65 v -93 l 46.46,-185.96 66.46,-132.86 112.88,-139.49 232.45,-345.4 46.59,-92.97 h -139.52 l -93,19.93 -93.02,46.48 -46.48,119.58 -19.9,66.39 H 3074.66 V 2599.51 Z M 2330.77,3708.73 v 0 -93 h 46.45 l 46.51,-19.94 26.58,-73.06 v -737.27 l -26.58,-46.48 -46.51,-19.93 -46.45,-26.55 v -92.99 h 604.43 v 119.54 l -73.14,19.93 -46.41,46.48 v 763.85 l 26.51,46.48 93.04,19.94 v 93 z m -1082.69,0 v 0 h 969.75 v -345.41 h -139.47 v 66.45 l -66.42,119.54 -119.54,66.42 h -159.43 v -391.89 l 119.55,26.55 19.91,66.42 v 26.6 h 112.92 v -371.98 h -112.92 v 19.97 l -19.91,73.02 -73.1,46.48 h -46.45 v -418.4 h 119.55 l 66.41,26.55 112.87,66.41 73.14,185.97 h 112.89 v -371.92 h -969.75 v 92.99 l 93.01,26.55 26.54,66.41 v 737.27 l -26.54,73.06 -93.01,19.94 z M 211.891,2599.51 v 0 46.47 l 19.968,119.55 73.067,179.32 185.965,232.51 225.824,345.37 46.523,93 H 630.363 l -119.543,-19.94 -92.957,-73.06 -19.941,-92.96 -26.582,-66.45 H 231.859 v 345.41 h 923.271 l -19.94,-159.42 -73.07,-185.99 -132.858,-205.9 -166.024,-185.99 -93,-139.45 -19.937,-112.93 112.937,-26.55 92.95,26.55 93.015,66.41 73.047,93 19.95,66.39 h 92.99 v -345.34 z m 4702.609,0 v 0 l 46.56,26.55 26.54,66.44 -46.55,185.96 -73.05,139.49 -112.85,159.41 -232.54,345.37 -66.39,93 h 139.44 l 112.98,-19.94 92.97,-73.06 46.46,-92.96 19.93,-66.45 h 119.6 v 345.41 h -903.35 v -93 l 46.46,-185.96 73.14,-132.86 112.89,-139.49 232.5,-345.4 46.42,-92.97 h -139.44 l -93.01,19.93 -92.98,46.48 -46.55,119.58 -19.83,66.39 h -119.6 v -371.92 h 830.25"
         style="fill:#ffffff;fill-opacity:1;fill-rule:evenodd;stroke:none"
         id="path14" />
    </g>
  </g>
</svg>
