<?xml version="1.0" encoding="UTF-8" standalone="no"?>
<!-- Created with Inkscape (http://www.inkscape.org/) -->

<svg
   version="1.1"
   id="svg2"
   width="656.66669"
   height="95.333336"
   viewBox="0 0 656.66669 95.333336"
   sodipodi:docname="zoom-seeklogo.eps"
   xmlns:inkscape="http://www.inkscape.org/namespaces/inkscape"
   xmlns:sodipodi="http://sodipodi.sourceforge.net/DTD/sodipodi-0.dtd"
   xmlns="http://www.w3.org/2000/svg"
   xmlns:svg="http://www.w3.org/2000/svg">
  <defs
     id="defs6" />
  <sodipodi:namedview
     id="namedview4"
     pagecolor="#ffffff"
     bordercolor="#000000"
     borderopacity="0.25"
     inkscape:showpageshadow="2"
     inkscape:pageopacity="0.0"
     inkscape:pagecheckerboard="0"
     inkscape:deskcolor="#d1d1d1" />
  <g
     id="g8"
     inkscape:groupmode="layer"
     inkscape:label="ink_ext_XXXXXX"
     transform="matrix(1.3333333,0,0,-1.3333333,0,95.333333)">
    <g
       id="g10"
       transform="scale(0.1)">
      <path
         d="m 1355,710 h 830 l 170,-210 c 0,0 30,-50 55,0 25,55 135,210 135,210 h 850 c 0,0 120,-90 110,-150 5,-90 0.6,-425 0.6,-425 0,0 -60.6,-105 -125.6,-130 -125,0 -800,0 -800,0 l -170,195 c 0,0 -40,45 -65,10 C 2315,160 2190,5 2190,5 h -810 c 0,0 -135,90 -135,160 0,70 0,410 0,410 0,0 10,110 110,135"
         style="fill:#211c1d;fill-opacity:1;fill-rule:nonzero;stroke:none"
         id="path12" />
      <path
         d="m 1355,710 h 830 l 170,-210 c 0,0 30,-50 55,0 25,55 135,210 135,210 h 850 c 0,0 120,-90 110,-150 5,-90 0.6,-425 0.6,-425 0,0 -60.6,-105 -125.6,-130 -125,0 -800,0 -800,0 l -170,195 c 0,0 -40,45 -65,10 C 2315,160 2190,5 2190,5 h -810 c 0,0 -135,90 -135,160 0,70 0,410 0,410 0,0 10,110 110,135 z"
         style="fill:none;stroke:#100f0d;stroke-width:10;stroke-linecap:butt;stroke-linejoin:miter;stroke-miterlimit:10;stroke-dasharray:none;stroke-opacity:1"
         id="path14" />
      <path
         d="m 40,710 h 1035 c 0,0 195,-210.078 0,-367.539 C 930,320 220,260 220,260 c 0,0 -65,-55 0,-100 80,-5 941.67,0 941.67,0 V 5 H 120 C 120,5 5,95 5,210 c 0,115 130,180 215,195 115,15 780,85 780,85 0,0 95,85 -115,65 -40,0 -850,5 -850,5 l 5,150"
         style="fill:#211c1d;fill-opacity:1;fill-rule:nonzero;stroke:none"
         id="path16" />
      <path
         d="m 40,710 h 1035 c 0,0 195,-210.078 0,-367.539 C 930,320 220,260 220,260 c 0,0 -65,-55 0,-100 80,-5 941.67,0 941.67,0 V 5 H 120 C 120,5 5,95 5,210 c 0,115 130,180 215,195 115,15 780,85 780,85 0,0 95,85 -115,65 -40,0 -850,5 -850,5 z"
         style="fill:none;stroke:#211c1d;stroke-width:10;stroke-linecap:butt;stroke-linejoin:miter;stroke-miterlimit:10;stroke-dasharray:none;stroke-opacity:1"
         id="path18" />
      <path
         d="M 1400,550 V 150 h 725 l 120,155 255,5 145,-160 h 710 V 550 H 2635 L 2515,415 h -275 l -115,135 h -725"
         style="fill:#ffffff;fill-opacity:1;fill-rule:nonzero;stroke:none"
         id="path20" />
      <path
         d="M 1400,550 V 150 h 725 l 120,155 255,5 145,-160 h 710 V 550 H 2635 L 2515,415 h -275 l -115,135 z"
         style="fill:none;stroke:#100f0d;stroke-width:10;stroke-linecap:butt;stroke-linejoin:miter;stroke-miterlimit:10;stroke-dasharray:none;stroke-opacity:1"
         id="path22" />
      <path
         d="m 3590,5 h 170 v 545 h 300 V 350 c 0,0 25,-160 195,-165 170,-5 225,134.922 225,157.461 0,22.539 0,207.539 0,207.539 h 295 V 5 h 145 v 545 c 0,0 -40,140 -150,160 -115,0 -290,0 -290,0 0,0 -110,-25 -155,-135 0,-85 0,-165 0,-165 0,0 0,-60.078 -70,-67.539 C 4220,345 4210,370 4190,405 c 0,75 0,145 0,145 0,0 -25,145 -130,160 -310,0 -310,0 -310,0 0,0 -145,-85 -160,-160 0,-75 0,-545 0,-545"
         style="fill:#211c1d;fill-opacity:1;fill-rule:nonzero;stroke:none"
         id="path24" />
      <path
         d="m 3590,5 h 170 v 545 h 300 V 350 c 0,0 25,-160 195,-165 170,-5 225,134.922 225,157.461 0,22.539 0,207.539 0,207.539 h 295 V 5 h 145 v 545 c 0,0 -40,140 -150,160 -115,0 -290,0 -290,0 0,0 -110,-25 -155,-135 0,-85 0,-165 0,-165 0,0 0,-60.078 -70,-67.539 C 4220,345 4210,370 4190,405 c 0,75 0,145 0,145 0,0 -25,145 -130,160 -310,0 -310,0 -310,0 0,0 -145,-85 -160,-160 0,-75 0,-545 0,-545 z"
         style="fill:none;stroke:#100f0d;stroke-width:10;stroke-linecap:butt;stroke-linejoin:miter;stroke-miterlimit:10;stroke-dasharray:none;stroke-opacity:1"
         id="path26" />
    </g>
  </g>
</svg>
